<?xml version="1.0" encoding="UTF-8"?>
<svg xmlns="http://www.w3.org/2000/svg" version="1.1" viewBox="0 0 741.2 423.9">
  <defs>
    <style>
      .cls-1 {
        fill: #919191;
      }

      .cls-2 {
        fill: #fff;
      }
    </style>
  </defs>
  <!-- Generator: Adobe Illustrator 28.7.10, SVG Export Plug-In . SVG Version: 1.2.0 Build 236)  -->
  <g>
    <g id="Layer_1">
      <g>
        <path class="cls-1" d="M333.9,133.8h5.9v29.4c0,7.6-5.4,15.3-17.6,15.3s-17.6-5.6-17.6-15v-29.7h6.6v28.9c0,7.6,3.7,11.1,11.5,11.1s11.2-5.6,11.2-11.1v-28.9Z"/>
        <polygon class="cls-1" points="358.7 133.8 352.9 133.8 352.9 177.6 358.6 177.6 358.6 144.1 384.9 177.6 390.9 177.6 390.9 133.8 385.2 133.8 385.2 167.7 358.7 133.8"/>
        <rect class="cls-1" x="405" y="133.8" width="6.6" height="43.8"/>
        <polygon class="cls-1" points="420.9 133.8 427.6 133.8 438.4 166.7 450.3 133.8 456 133.8 439.2 177.6 435.9 177.6 420.9 133.8"/>
        <polygon class="cls-1" points="491 133.8 491 138.4 471.5 138.4 471.5 152.7 487.1 152.7 487.1 157.3 471.5 157.3 471.5 173 491 173 491 177.6 464.9 177.6 464.9 133.8 491 133.8"/>
        <g>
          <path class="cls-1" d="M520.1,157.1l.7-.2c3.4-1,8.2-6.2,8.2-12s-4.9-11-15.6-11h-12v43.8h6.6v-39.7h4.8c7.1,0,9.6,4.1,9.6,7.6s-3,8.9-9.7,8.9h-1.7l14.7,23.3h7.8l-13.4-20.7Z"/>
          <path class="cls-1" d="M560.6,167.3c0-4.1-3.9-6.5-8.4-9.2l-1.5-.9c-5-3.1-10.4-6.8-10.4-13.1s5.7-11.2,13.2-11.2,10,1.5,11.6,2.2c0,.3-1.6,3.9-1.8,4.4-1.4-.7-4.5-2-8.7-2s-7.7,2.1-7.7,5.4,3.3,6.1,7.6,8.7l1.9,1.2.3.2c4.4,2.8,11,6.9,11,13s-8,12.5-15.5,12.5-11.3-2-13-2.9c.2-.4,1.7-3.8,1.9-4.2h0c1.9.9,5.5,2.4,11.2,2.4,4.6.1,8.3-2.9,8.3-6.5"/>
        </g>
        <rect class="cls-1" x="578.8" y="133.8" width="6.6" height="43.8"/>
        <polygon class="cls-1" points="629.4 133.8 629.4 138.4 615.1 138.4 615.1 177.6 608.4 177.6 608.4 138.4 594 138.4 594 133.8 629.4 133.8"/>
        <polygon class="cls-1" points="644.6 138.4 644.6 152.7 660.2 152.7 660.2 157.3 644.6 157.3 644.6 173 664.1 173 664.1 177.6 638 177.6 638 133.8 664.1 133.8 664.1 138.4 644.6 138.4"/>
        <polygon class="cls-1" points="657.6 119.2 660.2 123.1 648.9 129.2 647.4 126.8 657.6 119.2"/>
        <g>
          <path class="cls-1" d="M499.4,195v.4c9.4,3.6,4.2,15.5.2,25.8l-20.6,52-30-78.2h-20.1v.4c5.9,4.5,9,13.3,11.8,20.7l28.6,74.1h14.5l38.2-95.2h-22.6Z"/>
          <path class="cls-1" d="M664.1,276c-5.5,2.5-11.6,3.7-18.4,3.7h-20.6v-84.7h-22.2v.4c7,2.4,6.8,13.3,6.8,20v74.3c-7.4-3.7-11.2-12.3-14.7-20.5l-31.5-74.2h-23.9v.4c7.2,2.1,4.4,8.2,2.3,13.4l-25.3,60.3c-3.4,8.2-7,16.7-14.7,20.5v.4h18.9l9.7-25.2h46.4l10,25.2h77.2v-14h0ZM534.7,254.4l18.9-47.1,19.2,47.1h-38.1Z"/>
          <path class="cls-1" d="M437.3,269.2l-31.4-74.2h-23.9v.4c7.2,2.1,4.4,8.2,2.3,13.4h0l-25.3,60.4c-1.3,3-2.5,6-4,8.8-3.6,1.1-7.5,1.7-11.6,1.7h-20.6v-84.7h-22.2v.4c7,2.4,6.8,13.3,6.8,20v74.8h55.9l9.7-25.2h46.4l10,25.2h22.8v-.4c-7.9-4-11.4-12.3-14.9-20.6M377,254.4l18.9-47.1,19.2,47.1h-38.1Z"/>
          <path class="cls-1" d="M75.2,102.7v189.6c0,16.3,12.6,29.1,28.6,29.1h45.1c6,0,13.9,4.1,17.8,15.5l2.2,6.3c.5,1.3,1.3,2.1,2.2,2.1s1.6-.8,2.2-2.1l2.2-6.3c3.9-11.4,11.8-15.5,17.8-15.5h45.1c16,0,28.6-12.8,28.6-29.1V102.7H75.2Z"/>
          <path class="cls-2" d="M188,195v-87.8h-34v87.8h-74.2v34h74.2v88.5c6.4,1.8,13.3,7.2,17,17.8,3.7-10.7,10.5-16,17-17.8v-88.5h74.2v-34h-74.2Z"/>
          <path class="cls-2" d="M106.3,144.7c-.5.2-1.8.3-2.4.2-.2,0-.3,0-.4-.1h0c0-.1-1.2-6-1.2-6-.2-1.1-1.1-1-1,.2l.6,6.1c-.2.3-1.1,1.8-1.9,1.8s-1.8-1.5-1.9-1.8l.6-6.1c0-1.2-.8-1.3-1-.2l-1.2,5.9h0c0,.1-.3.2-.4.2-.6.1-1.8,0-2.4-.2.8-3,2.5-9.7,3-11.8,0-.3,0-.9-.8-.9s-.2,0-.4.1c-.8.3-2.9,1.1-3.6,1.4l.5-4.8c0-1.2-.9-1.3-1.1-.2-1,4.3-1.5,10.1-4.6,12,.2-2,2.3-17.2,2.5-19.3,0-.5,0-.8.6-1,.4,0,.7,0,1.1.4l5.1,4.7c.2.2.5.4.8.3s.5-.4.6-.7l.7-5.8c0-.2,0-.4-.2-.6,0-.2-.4-.3-.6-.3h-.8l.2-1.8c.6-.3,2.1-1,2.9-1.1h.4c.4,0,.8,0,1.1.4.3.2.5.6.5,1l.9,8.2c0,.3.3.6.6.7.3,0,.6,0,.8-.3,0,0,5.1-4.6,5.1-4.7.4-.4.7-.5,1.1-.4.5.2.5.5.6,1,.3,2,2.3,17.2,2.5,19.3-3.1-1.9-3.6-7.7-4.6-12-.2-1.1-1.2-1-1.1.2l.5,4.8c-.7-.2-2.9-1.1-3.6-1.4-.2-.1-.3-.1-.4-.1-.6,0-.8.6-.8.9.8,2.2,2.5,8.8,3.3,11.8"/>
          <path class="cls-2" d="M140.3,144.7c-.5.2-1.8.3-2.4.2-.2,0-.3,0-.4-.1h-.1c0-.1-1.2-6-1.2-6-.2-1.1-1.1-1-1,.2l.6,6.1c-.2.3-1.1,1.8-1.9,1.8s-1.8-1.5-1.9-1.8l.6-6.1c.1-1.2-.8-1.3-1-.2l-1.2,5.9h-.1c-.1.1-.3.2-.4.2-.6.1-1.8,0-2.4-.2.8-3,2.5-9.7,3-11.8.1-.3-.1-.9-.8-.9s-.2,0-.4.1c-.8.3-2.9,1.1-3.6,1.4l.5-4.8c0-1.2-.9-1.3-1.1-.2-1,4.3-1.5,10.1-4.6,12,.2-2,2.3-17.2,2.5-19.3,0-.5,0-.8.6-1,.4,0,.7,0,1.1.4l5.1,4.7c.2.2.5.4.8.3s.5-.4.6-.7l.7-5.8c0-.2,0-.4-.2-.6-.1-.2-.4-.3-.6-.3h-.8l.2-1.8c.6-.3,2.1-1,2.9-1.1h.4c.4,0,.8,0,1.1.4.3.2.5.6.5,1l.9,8.2c0,.3.3.6.6.7s.6,0,.8-.3c0,0,5.1-4.6,5.1-4.7.4-.4.7-.5,1.1-.4.5.2.5.5.6,1,.3,2,2.3,17.2,2.5,19.3-3.1-1.9-3.6-7.7-4.6-12-.2-1.1-1.2-1-1.1.2l.5,4.8c-.7-.2-2.9-1.1-3.6-1.4-.2-.1-.3-.1-.4-.1-.6,0-.8.6-.8.9.8,2.2,2.5,8.8,3.3,11.8"/>
          <path class="cls-2" d="M106.3,184.8c-.5.2-1.8.3-2.4.2-.2,0-.3,0-.4-.1h0c0-.1-1.2-6-1.2-6-.2-1.1-1.1-1-1,.2l.6,6.1c-.2.3-1.1,1.8-1.9,1.8s-1.8-1.5-1.9-1.8l.6-6.1c0-1.2-.8-1.3-1-.2l-1.2,5.9h0c0,.1-.3.2-.4.2-.6.1-1.8,0-2.4-.2.8-3,2.5-9.7,3-11.8,0-.3,0-.9-.8-.9s-.2,0-.4.1c-.8.3-2.9,1.1-3.6,1.4l.5-4.8c0-1.2-.9-1.3-1.1-.2-1,4.3-1.5,10.1-4.6,12,.2-2,2.3-17.2,2.5-19.3,0-.5,0-.8.6-1,.4-.1.7,0,1.1.4l5.1,4.7c.2.2.5.4.8.3.3-.1.5-.4.6-.7l.7-5.8c0-.2,0-.4-.2-.6,0-.2-.4-.3-.6-.3h-.8l.2-1.8c.6-.3,2.1-1,2.9-1.1h.4c.4,0,.8.1,1.1.4.3.2.5.6.5,1l.9,8.2c0,.3.3.6.6.7.3.1.6,0,.8-.3,0,0,5.1-4.6,5.1-4.7.4-.4.7-.5,1.1-.4.5.2.5.5.6,1,.3,2,2.3,17.2,2.5,19.3-3.1-1.9-3.6-7.7-4.6-12-.2-1.1-1.2-1-1.1.2l.5,4.8c-.7-.2-2.9-1.1-3.6-1.4-.2-.1-.3-.1-.4-.1-.6,0-.8.6-.8.9.8,2.2,2.5,8.8,3.3,11.8"/>
          <path class="cls-2" d="M140.3,184.8c-.5.2-1.8.3-2.4.2-.2,0-.3,0-.4-.1h-.1c0-.1-1.2-6-1.2-6-.2-1.1-1.1-1-1,.2l.6,6.1c-.2.3-1.1,1.8-1.9,1.8s-1.8-1.5-1.9-1.8l.6-6.1c.1-1.2-.8-1.3-1-.2l-1.2,5.9h-.1c-.1.1-.3.2-.4.2-.6.1-1.8,0-2.4-.2.8-3,2.5-9.7,3-11.8.1-.3-.1-.9-.8-.9s-.2,0-.4.1c-.8.3-2.9,1.1-3.6,1.4l.5-4.8c0-1.2-.9-1.3-1.1-.2-1,4.3-1.5,10.1-4.6,12,.2-2,2.3-17.2,2.5-19.3,0-.5,0-.8.6-1,.4-.1.7,0,1.1.4l5.1,4.7c.2.2.5.4.8.3.3-.1.5-.4.6-.7l.7-5.8c0-.2,0-.4-.2-.6-.1-.2-.4-.3-.6-.3h-.8l.2-1.8c.6-.3,2.1-1,2.9-1.1h.4c.4,0,.8.1,1.1.4.3.2.5.6.5,1l.9,8.2c0,.3.3.6.6.7.3.1.6,0,.8-.3,0,0,5.1-4.6,5.1-4.7.4-.4.7-.5,1.1-.4.5.2.5.5.6,1,.3,2,2.3,17.2,2.5,19.3-3.1-1.9-3.6-7.7-4.6-12-.2-1.1-1.2-1-1.1.2l.5,4.8c-.7-.2-2.9-1.1-3.6-1.4-.2-.1-.3-.1-.4-.1-.6,0-.8.6-.8.9.8,2.2,2.5,8.8,3.3,11.8"/>
          <path class="cls-2" d="M214.5,144.7c-.5.2-1.8.3-2.4.2-.2,0-.3,0-.4-.1h-.1c0-.1-1.2-6-1.2-6-.2-1.1-1.1-1-1,.2l.6,6.1c-.2.3-1.1,1.8-1.9,1.8s-1.8-1.5-1.9-1.8l.6-6.1c.1-1.2-.8-1.3-1-.2l-1.2,5.9h-.1c-.1.1-.3.2-.4.2-.6.1-1.8,0-2.4-.2.8-3,2.5-9.7,3-11.8.1-.3-.1-.9-.8-.9s-.2,0-.4.1c-.8.3-2.9,1.1-3.6,1.4l.5-4.8c.1-1.2-.9-1.3-1.1-.2-1,4.3-1.5,10.1-4.6,12,.2-2,2.3-17.2,2.5-19.3.1-.5.1-.8.6-1,.4,0,.7,0,1.1.4l5.1,4.7c.2.2.5.4.8.3s.5-.4.6-.7l.7-5.8c0-.2,0-.4-.2-.6-.1-.2-.4-.3-.6-.3h-.8l.2-1.8c.6-.3,2.1-1,2.9-1.1h.4c.4,0,.8,0,1.1.4.3.2.5.6.5,1l.9,8.2c0,.3.3.6.6.7s.6,0,.8-.3c0,0,5.1-4.6,5.1-4.7.4-.4.7-.5,1.1-.4.5.2.5.5.6,1,.3,2,2.3,17.2,2.5,19.3-3.1-1.9-3.6-7.7-4.6-12-.2-1.1-1.2-1-1.1.2l.5,4.8c-.7-.2-2.9-1.1-3.6-1.4-.2-.1-.3-.1-.4-.1-.6,0-.8.6-.8.9.8,2.2,2.5,8.8,3.3,11.8"/>
          <path class="cls-2" d="M248.5,144.7c-.5.2-1.8.3-2.4.2-.2,0-.3,0-.4-.1h-.1c0-.1-1.2-6-1.2-6-.2-1.1-1.1-1-1,.2l.6,6.1c-.2.3-1.1,1.8-1.9,1.8s-1.8-1.5-1.9-1.8l.6-6.1c.1-1.2-.8-1.3-1-.2l-1.2,5.9h-.1c-.1.1-.3.2-.4.2-.6.1-1.8,0-2.4-.2.8-3,2.5-9.7,3-11.8.1-.3-.1-.9-.8-.9s-.2,0-.4.1c-.8.3-2.9,1.1-3.6,1.4l.5-4.8c.1-1.2-.9-1.3-1.1-.2-1,4.3-1.5,10.1-4.6,12,.2-2,2.3-17.2,2.5-19.3.1-.5.1-.8.6-1,.4,0,.7,0,1.1.4l5.1,4.7c.2.2.5.4.8.3s.5-.4.6-.7l.7-5.8c0-.2,0-.4-.2-.6-.1-.2-.4-.3-.6-.3h-.8l.2-1.8c.6-.3,2.1-1,2.9-1.1h.4c.4,0,.9,0,1.2.4.3.2.5.6.5,1l.9,8.2c0,.3.3.6.6.7s.6,0,.8-.3c0,0,5.1-4.6,5.1-4.7.4-.4.7-.5,1.1-.4.5.2.5.5.6,1,.3,2,2.3,17.2,2.5,19.3-3.1-1.9-3.6-7.7-4.6-12-.2-1.1-1.2-1-1.1.2l.5,4.8c-.7-.2-2.9-1.1-3.6-1.4-.2-.1-.3-.1-.4-.1-.6,0-.8.6-.8.9.7,2.2,2.4,8.8,3.2,11.8"/>
          <path class="cls-2" d="M214.5,184.8c-.5.2-1.8.3-2.4.2-.2,0-.3,0-.4-.1h-.1c0-.1-1.2-6-1.2-6-.2-1.1-1.1-1-1,.2l.6,6.1c-.2.3-1.1,1.8-1.9,1.8s-1.8-1.5-1.9-1.8l.6-6.1c.1-1.2-.8-1.3-1-.2l-1.2,5.9h-.1c-.1.1-.3.2-.4.2-.6.1-1.8,0-2.4-.2.8-3,2.5-9.7,3-11.8.1-.3-.1-.9-.8-.9s-.2,0-.4.1c-.8.3-2.9,1.1-3.6,1.4l.5-4.8c.1-1.2-.9-1.3-1.1-.2-1,4.3-1.5,10.1-4.6,12,.2-2,2.3-17.2,2.5-19.3.1-.5.1-.8.6-1,.4-.1.7,0,1.1.4l5.1,4.7c.2.2.5.4.8.3.3-.1.5-.4.6-.7l.7-5.8c0-.2,0-.4-.2-.6-.1-.2-.4-.3-.6-.3h-.8l.2-1.8c.6-.3,2.1-1,2.9-1.1h.4c.4,0,.8.1,1.1.4.3.2.5.6.5,1l.9,8.2c0,.3.3.6.6.7.3.1.6,0,.8-.3,0,0,5.1-4.6,5.1-4.7.4-.4.7-.5,1.1-.4.5.2.5.5.6,1,.3,2,2.3,17.2,2.5,19.3-3.1-1.9-3.6-7.7-4.6-12-.2-1.1-1.2-1-1.1.2l.5,4.8c-.7-.2-2.9-1.1-3.6-1.4-.2-.1-.3-.1-.4-.1-.6,0-.8.6-.8.9.8,2.2,2.5,8.8,3.3,11.8"/>
          <path class="cls-2" d="M248.5,184.8c-.5.2-1.8.3-2.4.2-.2,0-.3,0-.4-.1h-.1c0-.1-1.2-6-1.2-6-.2-1.1-1.1-1-1,.2l.6,6.1c-.2.3-1.1,1.8-1.9,1.8s-1.8-1.5-1.9-1.8l.6-6.1c.1-1.2-.8-1.3-1-.2l-1.2,5.9h-.1c-.1.1-.3.2-.4.2-.6.1-1.8,0-2.4-.2.8-3,2.5-9.7,3-11.8.1-.3-.1-.9-.8-.9s-.2,0-.4.1c-.8.3-2.9,1.1-3.6,1.4l.5-4.8c.1-1.2-.9-1.3-1.1-.2-1,4.3-1.5,10.1-4.6,12,.2-2,2.3-17.2,2.5-19.3.1-.5.1-.8.6-1,.4-.1.7,0,1.1.4l5.1,4.7c.2.2.5.4.8.3.3-.1.5-.4.6-.7l.7-5.8c0-.2,0-.4-.2-.6-.1-.2-.4-.3-.6-.3h-.8l.2-1.8c.6-.3,2.1-1,2.9-1.1h.4c.4,0,.9.1,1.2.4.3.2.5.6.5,1l.9,8.2c0,.3.3.6.6.7.3.1.6,0,.8-.3,0,0,5.1-4.6,5.1-4.7.4-.4.7-.5,1.1-.4.5.2.5.5.6,1,.3,2,2.3,17.2,2.5,19.3-3.1-1.9-3.6-7.7-4.6-12-.2-1.1-1.2-1-1.1.2l.5,4.8c-.7-.2-2.9-1.1-3.6-1.4-.2-.1-.3-.1-.4-.1-.6,0-.8.6-.8.9.7,2.2,2.4,8.8,3.2,11.8"/>
          <path class="cls-2" d="M106.3,266.5c-.5.2-1.8.3-2.4.2-.2,0-.3,0-.4-.1h0c0-.1-1.2-6-1.2-6-.2-1.1-1.1-1-1,.2l.6,6.1c-.2.3-1.1,1.8-1.9,1.8s-1.8-1.5-1.9-1.8l.6-6.1c0-1.2-.8-1.3-1-.2l-1.2,5.9h0c0,.1-.3.2-.4.2-.6,0-1.8,0-2.4-.2.8-3,2.5-9.7,3-11.8,0-.3,0-.9-.8-.9s-.2,0-.4.1c-.8.3-2.9,1.1-3.6,1.4l.5-4.8c0-1.2-.9-1.3-1.1-.2-1,4.3-1.5,10.1-4.6,12,.2-2,2.3-17.2,2.5-19.3,0-.5,0-.8.6-1,.4-.1.7,0,1.1.4l5.1,4.7c.2.2.5.4.8.3.3-.1.5-.4.6-.7l.7-5.8c0-.2,0-.4-.2-.6,0-.2-.4-.3-.6-.3h-.8l.2-1.8c.6-.3,2.1-1,2.9-1.1h.4c.4,0,.8.1,1.1.4.3.2.5.6.5,1l.9,8.2c0,.3.3.6.6.7.3.1.6,0,.8-.3,0,0,5.1-4.6,5.1-4.7.4-.4.7-.5,1.1-.4.5.2.5.5.6,1,.3,2,2.3,17.2,2.5,19.3-3.1-1.9-3.6-7.7-4.6-12-.2-1.1-1.2-1-1.1.2l.5,4.8c-.7-.2-2.9-1.1-3.6-1.4-.2-.1-.3-.1-.4-.1-.6,0-.8.6-.8.9.8,2.1,2.5,8.7,3.3,11.8"/>
          <path class="cls-2" d="M140.3,266.5c-.5.2-1.8.3-2.4.2-.2,0-.3,0-.4-.1h-.1c0-.1-1.2-6-1.2-6-.2-1.1-1.1-1-1,.2l.6,6.1c-.2.3-1.1,1.8-1.9,1.8s-1.8-1.5-1.9-1.8l.6-6.1c.1-1.2-.8-1.3-1-.2l-1.2,5.9h-.1c-.1.1-.3.2-.4.2-.6,0-1.8,0-2.4-.2.8-3,2.5-9.7,3-11.8.1-.3-.1-.9-.8-.9s-.2,0-.4.1c-.8.3-2.9,1.1-3.6,1.4l.5-4.8c0-1.2-.9-1.3-1.1-.2-1,4.3-1.5,10.1-4.6,12,.2-2,2.3-17.2,2.5-19.3,0-.5,0-.8.6-1,.4-.1.7,0,1.1.4l5.1,4.7c.2.2.5.4.8.3.3-.1.5-.4.6-.7l.7-5.8c0-.2,0-.4-.2-.6-.1-.2-.4-.3-.6-.3h-.8l.2-1.8c.6-.3,2.1-1,2.9-1.1h.4c.4,0,.8.1,1.1.4.3.2.5.6.5,1l.9,8.2c0,.3.3.6.6.7.3.1.6,0,.8-.3,0,0,5.1-4.6,5.1-4.7.4-.4.7-.5,1.1-.4.5.2.5.5.6,1,.3,2,2.3,17.2,2.5,19.3-3.1-1.9-3.6-7.7-4.6-12-.2-1.1-1.2-1-1.1.2l.5,4.8c-.7-.2-2.9-1.1-3.6-1.4-.2-.1-.3-.1-.4-.1-.6,0-.8.6-.8.9.8,2.1,2.5,8.7,3.3,11.8"/>
          <path class="cls-2" d="M106.3,306.6c-.5.2-1.8.3-2.4.2-.2,0-.3,0-.4-.1h0c0-.1-1.2-6-1.2-6-.2-1.1-1.1-1-1,.2l.6,6.1c-.2.3-1.1,1.8-1.9,1.8s-1.8-1.5-1.9-1.8l.6-6.1c0-1.2-.8-1.3-1-.2l-1.2,5.9h0c0,.1-.3.2-.4.2-.6.1-1.8,0-2.4-.2.8-3,2.5-9.7,3-11.8,0-.3,0-.9-.8-.9s-.2,0-.4.1c-.8.3-2.9,1.1-3.6,1.4l.5-4.8c0-1.2-.9-1.3-1.1-.2-1,4.3-1.5,10.1-4.6,12,.2-2,2.3-17.2,2.5-19.3,0-.5,0-.8.6-1,.4-.1.7,0,1.1.4l5.1,4.7c.2.2.5.4.8.3s.5-.4.6-.7l.7-5.8c0-.2,0-.4-.2-.6,0-.2-.4-.3-.6-.3h-.8l.2-1.8c.6-.3,2.1-1,2.9-1.1h.4c.4,0,.8.1,1.1.4.3.2.5.6.5,1l.9,8.2c0,.3.3.6.6.7.3.1.6,0,.8-.3,0,0,5.1-4.6,5.1-4.7.4-.4.7-.5,1.1-.4.5.2.5.5.6,1,.3,2,2.3,17.2,2.5,19.3-3.1-1.9-3.6-7.7-4.6-12-.2-1.1-1.2-1-1.1.2l.5,4.8c-.7-.2-2.9-1.1-3.6-1.4-.2-.1-.3-.1-.4-.1-.6,0-.8.6-.8.9.8,2.1,2.5,8.7,3.3,11.8"/>
          <path class="cls-2" d="M140.3,306.6c-.5.2-1.8.3-2.4.2-.2,0-.3,0-.4-.1h-.1c0-.1-1.2-6-1.2-6-.2-1.1-1.1-1-1,.2l.6,6.1c-.2.3-1.1,1.8-1.9,1.8s-1.8-1.5-1.9-1.8l.6-6.1c.1-1.2-.8-1.3-1-.2l-1.2,5.9h-.1c-.1.1-.3.2-.4.2-.6.1-1.8,0-2.4-.2.8-3,2.5-9.7,3-11.8.1-.3-.1-.9-.8-.9s-.2,0-.4.1c-.8.3-2.9,1.1-3.6,1.4l.5-4.8c0-1.2-.9-1.3-1.1-.2-1,4.3-1.5,10.1-4.6,12,.2-2,2.3-17.2,2.5-19.3,0-.5,0-.8.6-1,.4-.1.7,0,1.1.4l5.1,4.7c.2.2.5.4.8.3s.5-.4.6-.7l.7-5.8c0-.2,0-.4-.2-.6-.1-.2-.4-.3-.6-.3h-.8l.2-1.8c.6-.3,2.1-1,2.9-1.1h.4c.4,0,.8.1,1.1.4.3.2.5.6.5,1l.9,8.2c0,.3.3.6.6.7s.6,0,.8-.3c0,0,5.1-4.6,5.1-4.7.4-.4.7-.5,1.1-.4.5.2.5.5.6,1,.3,2,2.3,17.2,2.5,19.3-3.1-1.9-3.6-7.7-4.6-12-.2-1.1-1.2-1-1.1.2l.5,4.8c-.7-.2-2.9-1.1-3.6-1.4-.2-.1-.3-.1-.4-.1-.6,0-.8.6-.8.9.8,2.1,2.5,8.7,3.3,11.8"/>
          <path class="cls-2" d="M214.5,266.5c-.5.2-1.8.3-2.4.2-.2,0-.3,0-.4-.1h-.1c0-.1-1.2-6-1.2-6-.2-1.1-1.1-1-1,.2l.6,6.1c-.2.3-1.1,1.8-1.9,1.8s-1.8-1.5-1.9-1.8l.6-6.1c.1-1.2-.8-1.3-1-.2l-1.2,5.9h-.1c-.1.1-.3.2-.4.2-.6,0-1.8,0-2.4-.2.8-3,2.5-9.7,3-11.8.1-.3-.1-.9-.8-.9s-.2,0-.4.1c-.8.3-2.9,1.1-3.6,1.4l.5-4.8c.1-1.2-.9-1.3-1.1-.2-1,4.3-1.5,10.1-4.6,12,.2-2,2.3-17.2,2.5-19.3.1-.5.1-.8.6-1,.4-.1.7,0,1.1.4l5.1,4.7c.2.2.5.4.8.3.3-.1.5-.4.6-.7l.7-5.8c0-.2,0-.4-.2-.6-.1-.2-.4-.3-.6-.3h-.8l.2-1.8c.6-.3,2.1-1,2.9-1.1h.4c.4,0,.8.1,1.1.4.3.2.5.6.5,1l.9,8.2c0,.3.3.6.6.7.3.1.6,0,.8-.3,0,0,5.1-4.6,5.1-4.7.4-.4.7-.5,1.1-.4.5.2.5.5.6,1,.3,2,2.3,17.2,2.5,19.3-3.1-1.9-3.6-7.7-4.6-12-.2-1.1-1.2-1-1.1.2l.5,4.8c-.7-.2-2.9-1.1-3.6-1.4-.2-.1-.3-.1-.4-.1-.6,0-.8.6-.8.9.8,2.1,2.5,8.7,3.3,11.8"/>
          <path class="cls-2" d="M248.5,266.5c-.5.2-1.8.3-2.4.2-.2,0-.3,0-.4-.1h-.1c0-.1-1.2-6-1.2-6-.2-1.1-1.1-1-1,.2l.6,6.1c-.2.3-1.1,1.8-1.9,1.8s-1.8-1.5-1.9-1.8l.6-6.1c.1-1.2-.8-1.3-1-.2l-1.2,5.9h-.1c-.1.1-.3.2-.4.2-.6,0-1.8,0-2.4-.2.8-3,2.5-9.7,3-11.8.1-.3-.1-.9-.8-.9s-.2,0-.4.1c-.8.3-2.9,1.1-3.6,1.4l.5-4.8c.1-1.2-.9-1.3-1.1-.2-1,4.3-1.5,10.1-4.6,12,.2-2,2.3-17.2,2.5-19.3.1-.5.1-.8.6-1,.4-.1.7,0,1.1.4l5.1,4.7c.2.2.5.4.8.3.3-.1.5-.4.6-.7l.7-5.8c0-.2,0-.4-.2-.6-.1-.2-.4-.3-.6-.3h-.8l.2-1.8c.6-.3,2.1-1,2.9-1.1h.4c.4,0,.9.1,1.2.4.3.2.5.6.5,1l.9,8.2c0,.3.3.6.6.7.3.1.6,0,.8-.3,0,0,5.1-4.6,5.1-4.7.4-.4.7-.5,1.1-.4.5.2.5.5.6,1,.3,2,2.3,17.2,2.5,19.3-3.1-1.9-3.6-7.7-4.6-12-.2-1.1-1.2-1-1.1.2l.5,4.8c-.7-.2-2.9-1.1-3.6-1.4-.2-.1-.3-.1-.4-.1-.6,0-.8.6-.8.9.7,2.1,2.4,8.7,3.2,11.8"/>
          <path class="cls-2" d="M214.5,306.6c-.5.2-1.8.3-2.4.2-.2,0-.3,0-.4-.1h-.1c0-.1-1.2-6-1.2-6-.2-1.1-1.1-1-1,.2l.6,6.1c-.2.3-1.1,1.8-1.9,1.8s-1.8-1.5-1.9-1.8l.6-6.1c.1-1.2-.8-1.3-1-.2l-1.2,5.9h-.1c-.1.1-.3.2-.4.2-.6.1-1.8,0-2.4-.2.8-3,2.5-9.7,3-11.8.1-.3-.1-.9-.8-.9s-.2,0-.4.1c-.8.3-2.9,1.1-3.6,1.4l.5-4.8c.1-1.2-.9-1.3-1.1-.2-1,4.3-1.5,10.1-4.6,12,.2-2,2.3-17.2,2.5-19.3.1-.5.1-.8.6-1,.4-.1.7,0,1.1.4l5.1,4.7c.2.2.5.4.8.3s.5-.4.6-.7l.7-5.8c0-.2,0-.4-.2-.6-.1-.2-.4-.3-.6-.3h-.8l.2-1.8c.6-.3,2.1-1,2.9-1.1h.4c.4,0,.8.1,1.1.4.3.2.5.6.5,1l.9,8.2c0,.3.3.6.6.7s.6,0,.8-.3c0,0,5.1-4.6,5.1-4.7.4-.4.7-.5,1.1-.4.5.2.5.5.6,1,.3,2,2.3,17.2,2.5,19.3-3.1-1.9-3.6-7.7-4.6-12-.2-1.1-1.2-1-1.1.2l.5,4.8c-.7-.2-2.9-1.1-3.6-1.4-.2-.1-.3-.1-.4-.1-.6,0-.8.6-.8.9.8,2.1,2.5,8.7,3.3,11.8"/>
          <path class="cls-2" d="M248.5,306.6c-.5.2-1.8.3-2.4.2-.2,0-.3,0-.4-.1h-.1c0-.1-1.2-6-1.2-6-.2-1.1-1.1-1-1,.2l.6,6.1c-.2.3-1.1,1.8-1.9,1.8s-1.8-1.5-1.9-1.8l.6-6.1c.1-1.2-.8-1.3-1-.2l-1.2,5.9h-.1c-.1.1-.3.2-.4.2-.6.1-1.8,0-2.4-.2.8-3,2.5-9.7,3-11.8.1-.3-.1-.9-.8-.9s-.2,0-.4.1c-.8.3-2.9,1.1-3.6,1.4l.5-4.8c.1-1.2-.9-1.3-1.1-.2-1,4.3-1.5,10.1-4.6,12,.2-2,2.3-17.2,2.5-19.3.1-.5.1-.8.6-1,.4-.1.7,0,1.1.4l5.1,4.7c.2.2.5.4.8.3s.5-.4.6-.7l.7-5.8c0-.2,0-.4-.2-.6-.1-.2-.4-.3-.6-.3h-.8l.2-1.8c.6-.3,2.1-1,2.9-1.1h.4c.4,0,.9.1,1.2.4.3.2.5.6.5,1l.9,8.2c0,.3.3.6.6.7s.6,0,.8-.3c0,0,5.1-4.6,5.1-4.7.4-.4.7-.5,1.1-.4.5.2.5.5.6,1,.3,2,2.3,17.2,2.5,19.3-3.1-1.9-3.6-7.7-4.6-12-.2-1.1-1.2-1-1.1.2l.5,4.8c-.7-.2-2.9-1.1-3.6-1.4-.2-.1-.3-.1-.4-.1-.6,0-.8.6-.8.9.7,2.1,2.4,8.7,3.2,11.8"/>
          <path class="cls-1" d="M179.7,157.2l-3.1-6.1c-.1-.2-.4-.4-.7-.2-.3.1-.4.4-.3.7l2.9,6.7c-.1,1.4-1.2,2.4-2.6,2.4s-.9-.1-1.3-.3l-1.2-6.8c-.1-.3-.3-.5-.6-.4-.3,0-.5.3-.4.6l.7,7.1c-.4.8-1.2,1.2-2.1,1.3-.9-.1-1.7-.6-2.1-1.3l.8-7.1c0-.3-.2-.5-.4-.6-.3,0-.5.1-.6.4l-1.2,6.8c-.4.2-.8.3-1.3.3-1.4,0-2.5-1.1-2.6-2.4l2.9-6.7c.1-.3,0-.6-.3-.7-.3-.1-.6,0-.7.2l-3.1,6.1c-1.4,0-2.6-1.2-2.6-2.6s0-1,.3-1.4l5-5.9v-2.7c0-.3.2-.6.5-.6h2.5l2.2-2.2c.2-.2.6-.4.9-.4s.7.1.9.4l2.2,2.2h2.5c.3,0,.5.3.5.6v2.7l5,5.9c.3.4.3.8.3,1.4-.2,1.4-1.4,2.6-2.9,2.6M183.4,152c-1-1.2-4.6-5.5-4.6-5.6v-2.3c0-1.1-.9-2-2-2h-2l-1.9-1.9c-.5-.5-1.2-.8-1.9-.8s-1.4.3-1.9.8l-1.9,1.9h-2c-1.1,0-2,.9-2,2v2.3c-.1.1-3.6,4.4-4.6,5.6-.6.7-1,1.7-1,2.7,0,2.2,1.8,4.1,4,4.1.2,2.1,2,3.7,4.1,3.7s1.3-.2,1.9-.5c.7,1.1,2,1.9,3.4,1.9s2.7-.8,3.4-1.9c.6.3,1.2.5,1.9.5,2.1,0,3.9-1.6,4.1-3.7,2.2,0,4-1.9,4-4.1s-.3-1.9-1-2.7"/>
          <path class="cls-1" d="M179.7,217.7l-3.1-6.1c-.1-.2-.4-.4-.7-.2-.3.1-.4.4-.3.7l2.9,6.7c-.1,1.4-1.2,2.4-2.6,2.4s-.9-.1-1.3-.3l-1.2-6.8c-.1-.3-.3-.5-.6-.4-.3,0-.5.3-.4.6l.7,7.1c-.4.8-1.2,1.2-2.1,1.3-.9-.1-1.7-.6-2.1-1.3l.8-7.1c0-.3-.2-.5-.4-.6-.3,0-.5.1-.6.4l-1.2,6.8c-.4.2-.8.3-1.3.3-1.4,0-2.5-1.1-2.6-2.4l2.9-6.7c.1-.3,0-.6-.3-.7-.3-.1-.6,0-.7.2l-3.1,6.1c-1.4,0-2.6-1.2-2.6-2.6s0-1,.3-1.4l5-5.9v-2.7c0-.3.2-.6.5-.6h2.5l2.2-2.2c.2-.2.6-.4.9-.4s.7.1.9.4l2.2,2.2h2.5c.3,0,.5.3.5.6v2.7l5,5.9c.3.4.3.9.3,1.4-.2,1.5-1.4,2.6-2.9,2.6M183.4,212.6c-1-1.2-4.6-5.5-4.6-5.6v-2.3c0-1.1-.9-2-2-2h-2l-1.9-1.9c-.5-.5-1.2-.8-1.9-.8s-1.4.3-1.9.8l-1.9,1.9h-2c-1.1,0-2,.9-2,2v2.3c-.1.1-3.6,4.4-4.6,5.6-.6.7-1,1.7-1,2.7,0,2.2,1.8,4.1,4,4.1.2,2.1,2,3.7,4.1,3.7s1.3-.2,1.9-.5c.7,1.1,2,1.9,3.4,1.9s2.7-.8,3.4-1.9c.6.3,1.2.5,1.9.5,2.1,0,3.9-1.6,4.1-3.7,2.2,0,4-1.9,4-4.1s-.3-2-1-2.7"/>
          <path class="cls-1" d="M125.9,217.7l-3.1-6.1c0-.2-.4-.4-.7-.2-.3.1-.4.4-.3.7l2.9,6.7c0,1.4-1.2,2.4-2.6,2.4s-.9-.1-1.3-.3l-1.2-6.8c0-.3-.3-.5-.6-.4-.3,0-.5.3-.4.6l.7,7.1c-.4.8-1.2,1.2-2.1,1.3-.9-.1-1.7-.6-2.1-1.3l.7-7.1c0-.3-.2-.5-.4-.6-.3,0-.5.1-.6.4l-1.3,6.8c-.4.2-.8.3-1.3.3-1.4,0-2.5-1.1-2.6-2.4l2.9-6.7c0-.3,0-.6-.3-.7-.3-.1-.6,0-.7.2l-3.1,6.1c-1.5,0-2.6-1.2-2.6-2.6s0-1,.3-1.4l5-5.9v-2.7c0-.3.2-.6.5-.6h2.5l2.2-2.2c.2-.2.6-.4.9-.4s.7.1.9.4l2.2,2.2h2.5c.3,0,.5.3.5.6v2.7l5,5.9c.3.4.3.9.3,1.4-.1,1.5-1.2,2.6-2.7,2.6M129.6,212.6c-1-1.2-4.6-5.5-4.6-5.6v-2.3c0-1.1-.9-2-2-2h-2c-.2-.2-1.8-1.8-1.9-1.9-.5-.5-1.2-.8-1.9-.8s-1.4.3-1.9.8c0,0-1.6,1.6-1.9,1.9h-2c-1.1,0-2,.9-2,2v2.3c0,.1-3.6,4.4-4.6,5.6-.6.7-1,1.7-1,2.7,0,2.2,1.8,4.1,4,4.1.2,2.1,2,3.7,4.1,3.7s1.3-.2,1.9-.5c.7,1.1,2,1.9,3.4,1.9s2.7-.8,3.4-1.9c.6.3,1.2.5,1.9.5,2.1,0,3.9-1.6,4.1-3.7,2.2,0,4-1.9,4-4.1s-.4-2-1-2.7"/>
          <path class="cls-1" d="M233.6,217.7l-3.1-6.1c-.1-.2-.4-.4-.7-.2-.3.1-.4.4-.3.7l2.9,6.7c-.1,1.4-1.2,2.4-2.6,2.4s-.9-.1-1.3-.3l-1.2-6.8c0-.3-.3-.5-.6-.4-.3,0-.5.3-.4.6l.7,7.1c-.4.8-1.2,1.2-2.1,1.3-.9-.1-1.7-.6-2.1-1.3l.7-7.1c0-.3-.2-.5-.4-.6-.3,0-.5.1-.6.4l-1.2,6.8c-.4.2-.8.3-1.3.3-1.4,0-2.5-1.1-2.6-2.4l2.9-6.7c.1-.3,0-.6-.3-.7-.3-.1-.5,0-.7.2l-3.1,6.1c-1.5,0-2.6-1.2-2.6-2.6s0-1,.3-1.4l5-5.9v-2.7c0-.3.2-.6.5-.6h2.5l2.2-2.2c.2-.2.6-.4.9-.4s.7.1.9.4l2.2,2.2h2.5c.3,0,.5.3.5.6v2.7l5,5.9c.3.4.3.9.3,1.4-.2,1.5-1.4,2.6-2.8,2.6M237.3,212.6c-1-1.2-4.6-5.5-4.6-5.6v-2.3c0-1.1-.9-2-2-2h-2l-1.9-1.9c-.5-.5-1.2-.8-1.9-.8s-1.4.3-1.9.8l-1.9,1.9h-2c-1.1,0-2,.9-2,2v2.3c-.1.1-3.6,4.4-4.6,5.6-.6.7-1,1.7-1,2.7,0,2.2,1.8,4.1,4,4.1.2,2.1,2,3.7,4.1,3.7s1.3-.2,1.9-.5c.7,1.1,2,1.9,3.4,1.9s2.7-.8,3.4-1.9c.6.3,1.2.5,1.9.5,2.1,0,3.9-1.6,4.1-3.7,2.2,0,4-1.9,4-4.1s-.4-2-1-2.7"/>
          <path class="cls-1" d="M179.7,278.3l-3.1-6.1c-.1-.2-.4-.4-.7-.2-.3.1-.4.4-.3.7l2.9,6.7c-.1,1.4-1.2,2.4-2.6,2.4s-.9-.1-1.3-.3l-1.2-6.8c-.1-.3-.3-.5-.6-.4-.3,0-.5.3-.4.6l.7,7.1c-.4.8-1.2,1.3-2.1,1.3s-1.7-.5-2.1-1.3l.8-7.1c0-.3-.2-.5-.4-.6-.3,0-.5.2-.6.4l-1.2,6.8c-.4.2-.8.3-1.3.3-1.4,0-2.5-1.1-2.6-2.4l2.9-6.7c.1-.3,0-.6-.3-.7s-.6,0-.7.2l-3.1,6.1c-1.4,0-2.6-1.2-2.6-2.6s0-1,.3-1.4l5-5.9v-2.7c0-.3.2-.5.5-.5h2.5l2.2-2.2c.2-.2.6-.4.9-.4s.7.1.9.4l2.2,2.2h2.5c.3,0,.5.3.5.5v2.7l5,5.9c.3.4.3.9.3,1.4-.2,1.4-1.4,2.6-2.9,2.6M183.4,273.2c-1-1.2-4.6-5.5-4.6-5.6v-2.3c0-1.1-.9-2-2-2h-2c-.2-.2-1.8-1.8-1.9-1.9-.5-.5-1.2-.8-1.9-.8s-1.4.3-1.9.8l-1.9,1.9h-2c-1.1,0-2,.9-2,2v2.3c-.1.1-3.6,4.4-4.6,5.6-.6.7-1,1.7-1,2.7,0,2.2,1.8,4.1,4,4.1.2,2.1,2,3.7,4.1,3.7s1.3-.2,1.9-.5c.7,1.1,2,1.9,3.4,1.9s2.7-.8,3.4-1.9c.6.3,1.2.5,1.9.5,2.1,0,3.9-1.6,4.1-3.7,2.2,0,4-1.9,4-4.1s-.3-2-1-2.7"/>
        </g>
      </g>
    </g>
  </g>
</svg>