<?xml version="1.0" encoding="UTF-8"?>
<svg id="Calque_3" xmlns="http://www.w3.org/2000/svg" width="126.4808122" height="153.7599944" viewBox="0 0 126.4808122 153.7599944">
  <path d="M58.4000015.3099999c-.9300003,0-1.8600006.93-1.8600006,1.8600001v149.4199963c0,.9299927.6199989,1.8600006,1.8600006,1.8600006,1.8600006.3099976,3.7299995.3099976,5.5900002.3099976,1.8600044,0,3.7299995,0,5.5900002-.3099976.9300003,0,1.8600006-.9299927,1.8600006-1.8600006V2.17c0-.9300001-.9300003-1.86-1.8600006-1.86-1.8600006,0-3.7300034-.31-5.5900002-.31s-3.7299995,0-5.5900002.3099999Z" style="fill: #e30613;"/>
  <path d="M32.3100014,127.3700027c-10.8699989-9.0100021-17.7099991-22.6800003-17.7099991-37.9000015,0-9.6299973,2.7999992-18.6399994,7.4599991-26.4099998.3099995-.3100014.3099995-.6199989.3099995-.9300003v-17.0900002c0-1.5499992-2.1700001-2.4900017-3.1100006-1.5499992C7.46,54.9900016,0,71.4499969,0,89.4700012c0,28.5800018,18.6399994,52.8099976,44.4199982,61.1999969,1.2400017.3099976,2.4900017-.6199951,2.4900017-1.8600006V17.0900001c0-1.2399998-1.2400017-2.1700001-2.4900017-1.8599997-3.7299995.9299994-7.4599991,2.170001-11.1800003,3.7300005-.6199989.3099995-1.2399998.9300003-1.2399998,1.8600006v106.5500011h.3100033Z" style="fill: #e30613;"/>
  <path d="M126.4400024,74.5599975c-2.8000031-11.7999992-9.0100021-22.3700027-17.4000015-30.75-1.2399979-1.2400017-3.1100006-.3100014-3.1100006,1.5499992v17.0900002c0,.3100014,0,.6199989.3099976.9300003,2.4899979,3.7300034,4.3499985,7.7699966,5.590004,12.1200027.3099976.9300003.9300003,1.5500031,1.8600006,1.5500031h11.1800003c.9300003,0,1.8600006-1.2399979,1.5500031-2.4899979l.0199966-.0000076Z" style="fill: #e30613;"/>
  <path d="M95.6800003,127.3700027V20.8099994c0-.6200008-.3099976-1.5499992-1.2399979-1.8600006-3.7300034-1.5499992-7.4599991-2.7999992-11.1800003-3.7299995-1.2399979-.3100004-2.4899979.6199999-2.4899979,1.8600006v131.7200031c0,1.2400055,1.2399979,2.1699982,2.4899979,1.8600006,21.1200027-6.8300018,37.2799988-24.2299957,42.5600052-45.9799957.3099976-1.2399979-.6200027-2.4899979-1.8600006-2.4899979h-11.1800003c-.9300003,0-1.5500031.6200027-1.8600006,1.2399979-2.4899979,9.6299973-7.7699966,17.7099991-15.2200012,23.9199982l-.0200043.0199966Z" style="fill: #e30613;"/>
</svg>